<mxfile host="app.diagrams.net" agent="Mozilla/5.0 (Windows NT 10.0; Win64; x64) AppleWebKit/537.36 (KHTML, like Gecko) Chrome/131.0.0.0 Safari/537.36" version="24.8.6">
  <diagram id="C5RBs43oDa-KdzZeNtuy" name="Page-1">
    <mxGraphModel dx="1551" dy="393" grid="1" gridSize="10" guides="1" tooltips="1" connect="1" arrows="1" fold="1" page="1" pageScale="1" pageWidth="827" pageHeight="1169" math="0" shadow="0">
      <root>
        <mxCell id="WIyWlLk6GJQsqaUBKTNV-0" />
        <mxCell id="WIyWlLk6GJQsqaUBKTNV-1" parent="WIyWlLk6GJQsqaUBKTNV-0" />
        <mxCell id="M7CGMbNuYNeq0SnUNNgH-6" value="ทบทวนสัญลักษณ์" style="swimlane;fontFamily=Sarabun;fontSource=https%3A%2F%2Ffonts.googleapis.com%2Fcss%3Ffamily%3DSarabun;movable=0;resizable=0;rotatable=0;deletable=0;editable=0;locked=1;connectable=0;" parent="WIyWlLk6GJQsqaUBKTNV-1" vertex="1">
          <mxGeometry x="-720" y="20" width="650" height="290" as="geometry" />
        </mxCell>
        <mxCell id="M7CGMbNuYNeq0SnUNNgH-2" value="&lt;font data-font-src=&quot;https://fonts.googleapis.com/css?family=Sarabun&quot; face=&quot;Sarabun&quot;&gt;เริ่มต้น&lt;/font&gt;" style="ellipse;whiteSpace=wrap;html=1;" parent="M7CGMbNuYNeq0SnUNNgH-6" vertex="1">
          <mxGeometry x="20" y="40" width="130" height="30" as="geometry" />
        </mxCell>
        <mxCell id="M7CGMbNuYNeq0SnUNNgH-5" value="" style="endArrow=classic;html=1;rounded=0;" parent="M7CGMbNuYNeq0SnUNNgH-6" edge="1">
          <mxGeometry width="50" height="50" relative="1" as="geometry">
            <mxPoint x="84.5" y="70" as="sourcePoint" />
            <mxPoint x="84.5" y="120" as="targetPoint" />
          </mxGeometry>
        </mxCell>
        <mxCell id="M7CGMbNuYNeq0SnUNNgH-3" value="&lt;font face=&quot;Sarabun&quot;&gt;สิ้นสุด&lt;/font&gt;" style="ellipse;whiteSpace=wrap;html=1;" parent="M7CGMbNuYNeq0SnUNNgH-6" vertex="1">
          <mxGeometry x="150" y="90" width="130" height="30" as="geometry" />
        </mxCell>
        <mxCell id="M7CGMbNuYNeq0SnUNNgH-4" value="" style="endArrow=classic;html=1;rounded=0;" parent="M7CGMbNuYNeq0SnUNNgH-6" edge="1">
          <mxGeometry width="50" height="50" relative="1" as="geometry">
            <mxPoint x="214.5" y="40" as="sourcePoint" />
            <mxPoint x="214.5" y="90" as="targetPoint" />
          </mxGeometry>
        </mxCell>
        <mxCell id="mvioNwK95yMqdUQ73LqQ-0" value="กระบวนการ" style="rounded=0;whiteSpace=wrap;html=1;fontFamily=Sarabun;fontSource=https%3A%2F%2Ffonts.googleapis.com%2Fcss%3Ffamily%3DSarabun;" parent="M7CGMbNuYNeq0SnUNNgH-6" vertex="1">
          <mxGeometry x="320" y="70" width="120" height="30" as="geometry" />
        </mxCell>
        <mxCell id="mvioNwK95yMqdUQ73LqQ-1" value="" style="endArrow=classic;html=1;rounded=0;" parent="M7CGMbNuYNeq0SnUNNgH-6" edge="1">
          <mxGeometry width="50" height="50" relative="1" as="geometry">
            <mxPoint x="379" y="40" as="sourcePoint" />
            <mxPoint x="379.5" y="70" as="targetPoint" />
          </mxGeometry>
        </mxCell>
        <mxCell id="mvioNwK95yMqdUQ73LqQ-2" value="" style="endArrow=classic;html=1;rounded=0;" parent="M7CGMbNuYNeq0SnUNNgH-6" edge="1">
          <mxGeometry width="50" height="50" relative="1" as="geometry">
            <mxPoint x="379.75" y="100" as="sourcePoint" />
            <mxPoint x="380.25" y="130" as="targetPoint" />
          </mxGeometry>
        </mxCell>
        <mxCell id="mvioNwK95yMqdUQ73LqQ-3" value="ประโยคเงื่อนไข" style="rhombus;whiteSpace=wrap;html=1;fontFamily=Sarabun;fontSource=https%3A%2F%2Ffonts.googleapis.com%2Fcss%3Ffamily%3DSarabun;" parent="M7CGMbNuYNeq0SnUNNgH-6" vertex="1">
          <mxGeometry x="490" y="60" width="100" height="60" as="geometry" />
        </mxCell>
        <mxCell id="mvioNwK95yMqdUQ73LqQ-4" value="" style="endArrow=classic;html=1;rounded=0;" parent="M7CGMbNuYNeq0SnUNNgH-6" edge="1">
          <mxGeometry width="50" height="50" relative="1" as="geometry">
            <mxPoint x="539.71" y="30" as="sourcePoint" />
            <mxPoint x="540.21" y="60" as="targetPoint" />
          </mxGeometry>
        </mxCell>
        <mxCell id="mvioNwK95yMqdUQ73LqQ-5" value="" style="endArrow=classic;html=1;rounded=0;" parent="M7CGMbNuYNeq0SnUNNgH-6" edge="1">
          <mxGeometry width="50" height="50" relative="1" as="geometry">
            <mxPoint x="539.71" y="120" as="sourcePoint" />
            <mxPoint x="540" y="175" as="targetPoint" />
          </mxGeometry>
        </mxCell>
        <mxCell id="mvioNwK95yMqdUQ73LqQ-7" value="จริง" style="edgeLabel;html=1;align=center;verticalAlign=middle;resizable=0;points=[];fontFamily=Sarabun;fontSource=https%3A%2F%2Ffonts.googleapis.com%2Fcss%3Ffamily%3DSarabun;" parent="mvioNwK95yMqdUQ73LqQ-5" vertex="1" connectable="0">
          <mxGeometry x="-0.4142" y="-1" relative="1" as="geometry">
            <mxPoint as="offset" />
          </mxGeometry>
        </mxCell>
        <mxCell id="mvioNwK95yMqdUQ73LqQ-6" value="" style="endArrow=classic;html=1;rounded=0;exitX=1;exitY=0.5;exitDx=0;exitDy=0;" parent="M7CGMbNuYNeq0SnUNNgH-6" source="mvioNwK95yMqdUQ73LqQ-3" edge="1">
          <mxGeometry width="50" height="50" relative="1" as="geometry">
            <mxPoint x="620" y="95" as="sourcePoint" />
            <mxPoint x="610" y="175" as="targetPoint" />
            <Array as="points">
              <mxPoint x="610" y="90" />
            </Array>
          </mxGeometry>
        </mxCell>
        <mxCell id="mvioNwK95yMqdUQ73LqQ-8" value="&lt;font data-font-src=&quot;https://fonts.googleapis.com/css?family=Sarabun&quot; face=&quot;Sarabun&quot;&gt;เท็จ&lt;/font&gt;" style="edgeLabel;html=1;align=center;verticalAlign=middle;resizable=0;points=[];" parent="mvioNwK95yMqdUQ73LqQ-6" vertex="1" connectable="0">
          <mxGeometry x="-0.0019" y="-2" relative="1" as="geometry">
            <mxPoint as="offset" />
          </mxGeometry>
        </mxCell>
        <mxCell id="mvioNwK95yMqdUQ73LqQ-9" value="&lt;font data-font-src=&quot;https://fonts.googleapis.com/css?family=Sarabun&quot; face=&quot;Sarabun&quot;&gt;ฟังก์ชัน/โมดูล&lt;/font&gt;" style="shape=process;whiteSpace=wrap;html=1;backgroundOutline=1;" parent="M7CGMbNuYNeq0SnUNNgH-6" vertex="1">
          <mxGeometry x="25" y="180" width="120" height="30" as="geometry" />
        </mxCell>
        <mxCell id="mvioNwK95yMqdUQ73LqQ-11" value="" style="endArrow=classic;html=1;rounded=0;" parent="M7CGMbNuYNeq0SnUNNgH-6" edge="1">
          <mxGeometry width="50" height="50" relative="1" as="geometry">
            <mxPoint x="84.70999999999998" y="150" as="sourcePoint" />
            <mxPoint x="85.20999999999998" y="180" as="targetPoint" />
          </mxGeometry>
        </mxCell>
        <mxCell id="mvioNwK95yMqdUQ73LqQ-12" value="" style="endArrow=classic;html=1;rounded=0;" parent="M7CGMbNuYNeq0SnUNNgH-6" edge="1">
          <mxGeometry width="50" height="50" relative="1" as="geometry">
            <mxPoint x="84.70999999999998" y="210" as="sourcePoint" />
            <mxPoint x="85.20999999999998" y="240" as="targetPoint" />
          </mxGeometry>
        </mxCell>
        <mxCell id="mvioNwK95yMqdUQ73LqQ-13" value="" style="strokeWidth=2;html=1;shape=mxgraph.flowchart.start_2;whiteSpace=wrap;" parent="M7CGMbNuYNeq0SnUNNgH-6" vertex="1">
          <mxGeometry x="205" y="185" width="20" height="20" as="geometry" />
        </mxCell>
        <mxCell id="mvioNwK95yMqdUQ73LqQ-16" value="" style="endArrow=classic;html=1;rounded=0;" parent="M7CGMbNuYNeq0SnUNNgH-6" edge="1">
          <mxGeometry width="50" height="50" relative="1" as="geometry">
            <mxPoint x="214.70999999999998" y="155" as="sourcePoint" />
            <mxPoint x="215.20999999999998" y="185" as="targetPoint" />
          </mxGeometry>
        </mxCell>
        <mxCell id="mvioNwK95yMqdUQ73LqQ-17" value="" style="endArrow=classic;html=1;rounded=0;entryX=0;entryY=0.5;entryDx=0;entryDy=0;entryPerimeter=0;" parent="M7CGMbNuYNeq0SnUNNgH-6" target="mvioNwK95yMqdUQ73LqQ-13" edge="1">
          <mxGeometry width="50" height="50" relative="1" as="geometry">
            <mxPoint x="189.99999999999997" y="155" as="sourcePoint" />
            <mxPoint x="190.49999999999997" y="185" as="targetPoint" />
            <Array as="points">
              <mxPoint x="190" y="180" />
            </Array>
          </mxGeometry>
        </mxCell>
        <mxCell id="mvioNwK95yMqdUQ73LqQ-18" value="" style="endArrow=classic;html=1;rounded=0;entryX=1;entryY=0.5;entryDx=0;entryDy=0;entryPerimeter=0;" parent="M7CGMbNuYNeq0SnUNNgH-6" target="mvioNwK95yMqdUQ73LqQ-13" edge="1">
          <mxGeometry width="50" height="50" relative="1" as="geometry">
            <mxPoint x="239.99999999999997" y="155" as="sourcePoint" />
            <mxPoint x="240.49999999999997" y="185" as="targetPoint" />
            <Array as="points">
              <mxPoint x="240" y="180" />
            </Array>
          </mxGeometry>
        </mxCell>
        <mxCell id="mvioNwK95yMqdUQ73LqQ-19" value="" style="endArrow=classic;html=1;rounded=0;" parent="M7CGMbNuYNeq0SnUNNgH-6" edge="1">
          <mxGeometry width="50" height="50" relative="1" as="geometry">
            <mxPoint x="214.70999999999998" y="205" as="sourcePoint" />
            <mxPoint x="215.20999999999998" y="235" as="targetPoint" />
          </mxGeometry>
        </mxCell>
        <mxCell id="mvioNwK95yMqdUQ73LqQ-20" value="&lt;font data-font-src=&quot;https://fonts.googleapis.com/css?family=Sarabun&quot; face=&quot;Sarabun&quot;&gt;ตัวเชื่อม&lt;/font&gt;" style="text;html=1;align=center;verticalAlign=middle;resizable=0;points=[];autosize=1;strokeColor=none;fillColor=none;" parent="M7CGMbNuYNeq0SnUNNgH-6" vertex="1">
          <mxGeometry x="220" y="190" width="60" height="30" as="geometry" />
        </mxCell>
        <mxCell id="mvioNwK95yMqdUQ73LqQ-25" value="" style="endArrow=classic;html=1;rounded=0;" parent="M7CGMbNuYNeq0SnUNNgH-6" edge="1">
          <mxGeometry width="50" height="50" relative="1" as="geometry">
            <mxPoint x="353.71" y="165" as="sourcePoint" />
            <mxPoint x="354.21" y="195" as="targetPoint" />
          </mxGeometry>
        </mxCell>
        <mxCell id="mvioNwK95yMqdUQ73LqQ-21" value="" style="verticalLabelPosition=bottom;verticalAlign=top;html=1;shape=offPageConnector;rounded=0;size=0.5;" parent="M7CGMbNuYNeq0SnUNNgH-6" vertex="1">
          <mxGeometry x="339" y="195" width="30" height="30" as="geometry" />
        </mxCell>
        <mxCell id="mvioNwK95yMqdUQ73LqQ-26" value="" style="endArrow=classic;html=1;rounded=0;" parent="M7CGMbNuYNeq0SnUNNgH-6" edge="1">
          <mxGeometry width="50" height="50" relative="1" as="geometry">
            <mxPoint x="405.71" y="195" as="sourcePoint" />
            <mxPoint x="406.21" y="225" as="targetPoint" />
          </mxGeometry>
        </mxCell>
        <mxCell id="mvioNwK95yMqdUQ73LqQ-27" value="" style="verticalLabelPosition=bottom;verticalAlign=top;html=1;shape=offPageConnector;rounded=0;size=0.5;" parent="M7CGMbNuYNeq0SnUNNgH-6" vertex="1">
          <mxGeometry x="391" y="165" width="30" height="30" as="geometry" />
        </mxCell>
        <mxCell id="mvioNwK95yMqdUQ73LqQ-28" value="หน้าต่อไป" style="text;html=1;align=center;verticalAlign=middle;resizable=0;points=[];autosize=1;strokeColor=none;fillColor=none;fontFamily=Sarabun;fontSource=https%3A%2F%2Ffonts.googleapis.com%2Fcss%3Ffamily%3DSarabun;" parent="M7CGMbNuYNeq0SnUNNgH-6" vertex="1">
          <mxGeometry x="345" y="220" width="70" height="30" as="geometry" />
        </mxCell>
        <mxCell id="mvioNwK95yMqdUQ73LqQ-29" value="ก" style="text;html=1;align=center;verticalAlign=middle;resizable=0;points=[];autosize=1;strokeColor=none;fillColor=none;fontFamily=Sarabun;fontSource=https%3A%2F%2Ffonts.googleapis.com%2Fcss%3Ffamily%3DSarabun;" parent="M7CGMbNuYNeq0SnUNNgH-6" vertex="1">
          <mxGeometry x="339" y="190" width="30" height="30" as="geometry" />
        </mxCell>
        <mxCell id="mvioNwK95yMqdUQ73LqQ-30" value="ก" style="text;html=1;align=center;verticalAlign=middle;resizable=0;points=[];autosize=1;strokeColor=none;fillColor=none;fontFamily=Sarabun;fontSource=https%3A%2F%2Ffonts.googleapis.com%2Fcss%3Ffamily%3DSarabun;" parent="M7CGMbNuYNeq0SnUNNgH-6" vertex="1">
          <mxGeometry x="391" y="160" width="30" height="30" as="geometry" />
        </mxCell>
        <mxCell id="mvioNwK95yMqdUQ73LqQ-32" value="แสดงผล/รับค่า" style="shape=parallelogram;perimeter=parallelogramPerimeter;whiteSpace=wrap;html=1;fixedSize=1;fontFamily=Sarabun;fontSource=https%3A%2F%2Ffonts.googleapis.com%2Fcss%3Ffamily%3DSarabun;" parent="M7CGMbNuYNeq0SnUNNgH-6" vertex="1">
          <mxGeometry x="450" y="210" width="120" height="30" as="geometry" />
        </mxCell>
        <mxCell id="mvioNwK95yMqdUQ73LqQ-33" value="" style="endArrow=classic;html=1;rounded=0;" parent="M7CGMbNuYNeq0SnUNNgH-6" edge="1">
          <mxGeometry width="50" height="50" relative="1" as="geometry">
            <mxPoint x="509.71" y="180" as="sourcePoint" />
            <mxPoint x="510.21" y="210" as="targetPoint" />
          </mxGeometry>
        </mxCell>
        <mxCell id="mvioNwK95yMqdUQ73LqQ-34" value="" style="endArrow=classic;html=1;rounded=0;" parent="M7CGMbNuYNeq0SnUNNgH-6" edge="1">
          <mxGeometry width="50" height="50" relative="1" as="geometry">
            <mxPoint x="509.71" y="240" as="sourcePoint" />
            <mxPoint x="510.21" y="270" as="targetPoint" />
          </mxGeometry>
        </mxCell>
        <mxCell id="mvioNwK95yMqdUQ73LqQ-36" value="" style="swimlane;fontFamily=Sarabun;fontSource=https%3A%2F%2Ffonts.googleapis.com%2Fcss%3Ffamily%3DSarabun;movable=1;resizable=1;rotatable=1;deletable=1;editable=1;locked=0;connectable=1;" parent="WIyWlLk6GJQsqaUBKTNV-1" vertex="1">
          <mxGeometry x="-733" y="600" width="640" height="1690" as="geometry" />
        </mxCell>
        <mxCell id="mvioNwK95yMqdUQ73LqQ-69" value="&lt;font style=&quot;font-size: 10px;&quot; face=&quot;Sarabun&quot;&gt;สิ้นสุด&lt;/font&gt;" style="ellipse;whiteSpace=wrap;html=1;fontSize=10;" parent="mvioNwK95yMqdUQ73LqQ-36" vertex="1">
          <mxGeometry x="230.01" y="1660" width="105" height="20" as="geometry" />
        </mxCell>
        <mxCell id="IdoxDIaUG4CfJ2-m0SA9-85" value="11.ใส่เครื่องปรุงแล้วคนให้เข้ากัน" style="rounded=0;whiteSpace=wrap;html=1;fontSize=9;" parent="mvioNwK95yMqdUQ73LqQ-36" vertex="1">
          <mxGeometry x="239.48999999999998" y="1610" width="85" height="30" as="geometry" />
        </mxCell>
        <mxCell id="IdoxDIaUG4CfJ2-m0SA9-87" style="edgeStyle=orthogonalEdgeStyle;rounded=0;orthogonalLoop=1;jettySize=auto;html=1;entryX=0.5;entryY=0;entryDx=0;entryDy=0;" parent="mvioNwK95yMqdUQ73LqQ-36" source="IdoxDIaUG4CfJ2-m0SA9-85" target="mvioNwK95yMqdUQ73LqQ-69" edge="1">
          <mxGeometry relative="1" as="geometry" />
        </mxCell>
        <mxCell id="IdoxDIaUG4CfJ2-m0SA9-92" value="มี" style="edgeStyle=orthogonalEdgeStyle;rounded=0;orthogonalLoop=1;jettySize=auto;html=1;entryX=0.5;entryY=0;entryDx=0;entryDy=0;" parent="mvioNwK95yMqdUQ73LqQ-36" source="IdoxDIaUG4CfJ2-m0SA9-82" target="IdoxDIaUG4CfJ2-m0SA9-91" edge="1">
          <mxGeometry relative="1" as="geometry" />
        </mxCell>
        <mxCell id="IdoxDIaUG4CfJ2-m0SA9-82" value="ในซองมีเครื่องปรุงหรือไม่" style="rhombus;whiteSpace=wrap;html=1;fontSize=8;" parent="mvioNwK95yMqdUQ73LqQ-36" vertex="1">
          <mxGeometry x="251.87" y="1482.5" width="60.02" height="50" as="geometry" />
        </mxCell>
        <mxCell id="IdoxDIaUG4CfJ2-m0SA9-95" style="edgeStyle=orthogonalEdgeStyle;rounded=0;orthogonalLoop=1;jettySize=auto;html=1;entryX=1;entryY=0.5;entryDx=0;entryDy=0;" parent="mvioNwK95yMqdUQ73LqQ-36" source="IdoxDIaUG4CfJ2-m0SA9-90" target="IdoxDIaUG4CfJ2-m0SA9-91" edge="1">
          <mxGeometry relative="1" as="geometry">
            <mxPoint x="387.5" y="1580" as="targetPoint" />
            <Array as="points">
              <mxPoint x="410" y="1580" />
            </Array>
          </mxGeometry>
        </mxCell>
        <mxCell id="IdoxDIaUG4CfJ2-m0SA9-90" value="บอกแม่ให้แม่ปรุงให้" style="rounded=0;whiteSpace=wrap;html=1;" parent="mvioNwK95yMqdUQ73LqQ-36" vertex="1">
          <mxGeometry x="370.63" y="1492.5" width="80" height="30" as="geometry" />
        </mxCell>
        <mxCell id="IdoxDIaUG4CfJ2-m0SA9-89" value="ไม่มี" style="edgeStyle=orthogonalEdgeStyle;rounded=0;orthogonalLoop=1;jettySize=auto;html=1;fontSize=10;" parent="mvioNwK95yMqdUQ73LqQ-36" source="IdoxDIaUG4CfJ2-m0SA9-82" target="IdoxDIaUG4CfJ2-m0SA9-90" edge="1">
          <mxGeometry relative="1" as="geometry">
            <mxPoint x="340" y="1535.0000000000005" as="targetPoint" />
          </mxGeometry>
        </mxCell>
        <mxCell id="IdoxDIaUG4CfJ2-m0SA9-81" value="10.ปิดแก็ส" style="rounded=0;whiteSpace=wrap;html=1;" parent="mvioNwK95yMqdUQ73LqQ-36" vertex="1">
          <mxGeometry x="249.98999999999998" y="1410" width="64" height="30" as="geometry" />
        </mxCell>
        <mxCell id="IdoxDIaUG4CfJ2-m0SA9-84" style="edgeStyle=orthogonalEdgeStyle;rounded=0;orthogonalLoop=1;jettySize=auto;html=1;entryX=0.5;entryY=0;entryDx=0;entryDy=0;" parent="mvioNwK95yMqdUQ73LqQ-36" source="IdoxDIaUG4CfJ2-m0SA9-81" target="IdoxDIaUG4CfJ2-m0SA9-82" edge="1">
          <mxGeometry relative="1" as="geometry" />
        </mxCell>
        <mxCell id="IdoxDIaUG4CfJ2-m0SA9-93" style="edgeStyle=orthogonalEdgeStyle;rounded=0;orthogonalLoop=1;jettySize=auto;html=1;entryX=0.5;entryY=0;entryDx=0;entryDy=0;" parent="mvioNwK95yMqdUQ73LqQ-36" source="IdoxDIaUG4CfJ2-m0SA9-91" target="IdoxDIaUG4CfJ2-m0SA9-85" edge="1">
          <mxGeometry relative="1" as="geometry" />
        </mxCell>
        <mxCell id="IdoxDIaUG4CfJ2-m0SA9-91" value="" style="ellipse;whiteSpace=wrap;html=1;aspect=fixed;" parent="mvioNwK95yMqdUQ73LqQ-36" vertex="1">
          <mxGeometry x="271.99" y="1570" width="20" height="20" as="geometry" />
        </mxCell>
        <mxCell id="IdoxDIaUG4CfJ2-m0SA9-74" value="เส้นสุกหรือยัง" style="rhombus;whiteSpace=wrap;html=1;fontSize=10;" parent="mvioNwK95yMqdUQ73LqQ-36" vertex="1">
          <mxGeometry x="240.64" y="1300" width="80" height="60" as="geometry" />
        </mxCell>
        <mxCell id="IdoxDIaUG4CfJ2-m0SA9-78" style="edgeStyle=orthogonalEdgeStyle;rounded=0;orthogonalLoop=1;jettySize=auto;html=1;entryX=0.5;entryY=0;entryDx=0;entryDy=0;" parent="mvioNwK95yMqdUQ73LqQ-36" source="IdoxDIaUG4CfJ2-m0SA9-74" target="IdoxDIaUG4CfJ2-m0SA9-81" edge="1">
          <mxGeometry relative="1" as="geometry">
            <mxPoint x="281.26" y="1400" as="targetPoint" />
          </mxGeometry>
        </mxCell>
        <mxCell id="oZwS8hi09VmHAr_fTjPu-7" value="สุกแล้ว" style="edgeLabel;html=1;align=center;verticalAlign=middle;resizable=0;points=[];" parent="IdoxDIaUG4CfJ2-m0SA9-78" vertex="1" connectable="0">
          <mxGeometry x="0.2358" y="-1" relative="1" as="geometry">
            <mxPoint y="-10" as="offset" />
          </mxGeometry>
        </mxCell>
        <mxCell id="IdoxDIaUG4CfJ2-m0SA9-67" value="" style="ellipse;whiteSpace=wrap;html=1;aspect=fixed;" parent="mvioNwK95yMqdUQ73LqQ-36" vertex="1">
          <mxGeometry x="270.64" y="980" width="20" height="20" as="geometry" />
        </mxCell>
        <mxCell id="oZwS8hi09VmHAr_fTjPu-6" style="edgeStyle=orthogonalEdgeStyle;rounded=0;orthogonalLoop=1;jettySize=auto;html=1;entryX=0.5;entryY=0;entryDx=0;entryDy=0;" parent="mvioNwK95yMqdUQ73LqQ-36" source="IdoxDIaUG4CfJ2-m0SA9-51" target="IdoxDIaUG4CfJ2-m0SA9-53" edge="1">
          <mxGeometry relative="1" as="geometry" />
        </mxCell>
        <mxCell id="IdoxDIaUG4CfJ2-m0SA9-51" value="7.รอจนน้ำเดือด" style="rounded=0;whiteSpace=wrap;html=1;" parent="mvioNwK95yMqdUQ73LqQ-36" vertex="1">
          <mxGeometry x="240.64000000000001" y="1030" width="80" height="20" as="geometry" />
        </mxCell>
        <mxCell id="IdoxDIaUG4CfJ2-m0SA9-71" style="edgeStyle=orthogonalEdgeStyle;rounded=0;orthogonalLoop=1;jettySize=auto;html=1;entryX=0.5;entryY=0;entryDx=0;entryDy=0;" parent="mvioNwK95yMqdUQ73LqQ-36" source="IdoxDIaUG4CfJ2-m0SA9-67" target="IdoxDIaUG4CfJ2-m0SA9-51" edge="1">
          <mxGeometry relative="1" as="geometry" />
        </mxCell>
        <mxCell id="IdoxDIaUG4CfJ2-m0SA9-53" value="น้ำเดือดหรือไม่" style="rhombus;whiteSpace=wrap;html=1;fontSize=10;" parent="mvioNwK95yMqdUQ73LqQ-36" vertex="1">
          <mxGeometry x="241.26000000000002" y="1084" width="80" height="60" as="geometry" />
        </mxCell>
        <mxCell id="IdoxDIaUG4CfJ2-m0SA9-57" value="8.ใส่บะหมี่กึ่งสำเร็จรูป" style="rounded=0;whiteSpace=wrap;html=1;" parent="mvioNwK95yMqdUQ73LqQ-36" vertex="1">
          <mxGeometry x="230.01" y="1200" width="100" height="30" as="geometry" />
        </mxCell>
        <mxCell id="IdoxDIaUG4CfJ2-m0SA9-56" value="เดือด" style="edgeStyle=orthogonalEdgeStyle;rounded=0;orthogonalLoop=1;jettySize=auto;html=1;" parent="mvioNwK95yMqdUQ73LqQ-36" source="IdoxDIaUG4CfJ2-m0SA9-53" target="IdoxDIaUG4CfJ2-m0SA9-57" edge="1">
          <mxGeometry x="-0.2" relative="1" as="geometry">
            <mxPoint x="280" y="1210" as="targetPoint" />
            <mxPoint as="offset" />
          </mxGeometry>
        </mxCell>
        <mxCell id="IdoxDIaUG4CfJ2-m0SA9-72" value="9.รอจนเส้นสุก" style="rounded=0;whiteSpace=wrap;html=1;" parent="mvioNwK95yMqdUQ73LqQ-36" vertex="1">
          <mxGeometry x="240.01" y="1260" width="80" height="20" as="geometry" />
        </mxCell>
        <mxCell id="IdoxDIaUG4CfJ2-m0SA9-73" style="edgeStyle=orthogonalEdgeStyle;rounded=0;orthogonalLoop=1;jettySize=auto;html=1;entryX=0.5;entryY=0;entryDx=0;entryDy=0;" parent="mvioNwK95yMqdUQ73LqQ-36" source="IdoxDIaUG4CfJ2-m0SA9-57" target="IdoxDIaUG4CfJ2-m0SA9-72" edge="1">
          <mxGeometry relative="1" as="geometry" />
        </mxCell>
        <mxCell id="IdoxDIaUG4CfJ2-m0SA9-75" style="edgeStyle=orthogonalEdgeStyle;rounded=0;orthogonalLoop=1;jettySize=auto;html=1;entryX=0.5;entryY=0;entryDx=0;entryDy=0;" parent="mvioNwK95yMqdUQ73LqQ-36" source="IdoxDIaUG4CfJ2-m0SA9-72" target="IdoxDIaUG4CfJ2-m0SA9-74" edge="1">
          <mxGeometry relative="1" as="geometry" />
        </mxCell>
        <mxCell id="IdoxDIaUG4CfJ2-m0SA9-76" value="ไม่สุก" style="edgeStyle=orthogonalEdgeStyle;rounded=0;orthogonalLoop=1;jettySize=auto;html=1;entryX=1;entryY=0.5;entryDx=0;entryDy=0;" parent="mvioNwK95yMqdUQ73LqQ-36" source="IdoxDIaUG4CfJ2-m0SA9-74" target="IdoxDIaUG4CfJ2-m0SA9-72" edge="1">
          <mxGeometry relative="1" as="geometry">
            <mxPoint x="360" y="1300" as="targetPoint" />
            <Array as="points">
              <mxPoint x="360" y="1330" />
              <mxPoint x="360" y="1270" />
            </Array>
          </mxGeometry>
        </mxCell>
        <mxCell id="IdoxDIaUG4CfJ2-m0SA9-23" value="หมด" style="edgeStyle=orthogonalEdgeStyle;rounded=0;orthogonalLoop=1;jettySize=auto;html=1;exitX=1;exitY=0.5;exitDx=0;exitDy=0;entryX=0;entryY=0.5;entryDx=0;entryDy=0;" parent="mvioNwK95yMqdUQ73LqQ-36" source="IdoxDIaUG4CfJ2-m0SA9-20" target="IdoxDIaUG4CfJ2-m0SA9-24" edge="1">
          <mxGeometry relative="1" as="geometry">
            <mxPoint x="415" y="224.95238095238096" as="targetPoint" />
            <Array as="points">
              <mxPoint x="400" y="210" />
            </Array>
            <mxPoint as="offset" />
          </mxGeometry>
        </mxCell>
        <mxCell id="IdoxDIaUG4CfJ2-m0SA9-65" value="ไม่หมด" style="edgeStyle=orthogonalEdgeStyle;rounded=0;orthogonalLoop=1;jettySize=auto;html=1;entryX=0.5;entryY=0;entryDx=0;entryDy=0;fontSize=9;" parent="mvioNwK95yMqdUQ73LqQ-36" source="IdoxDIaUG4CfJ2-m0SA9-20" target="IdoxDIaUG4CfJ2-m0SA9-63" edge="1">
          <mxGeometry x="0.1111" relative="1" as="geometry">
            <mxPoint as="offset" />
          </mxGeometry>
        </mxCell>
        <mxCell id="IdoxDIaUG4CfJ2-m0SA9-20" value="ของที่ตลาดหมดหรือไม่" style="rhombus;whiteSpace=wrap;html=1;fontSize=9;" parent="mvioNwK95yMqdUQ73LqQ-36" vertex="1">
          <mxGeometry x="249.99" y="180" width="60" height="60" as="geometry" />
        </mxCell>
        <mxCell id="IdoxDIaUG4CfJ2-m0SA9-30" style="edgeStyle=orthogonalEdgeStyle;rounded=0;orthogonalLoop=1;jettySize=auto;html=1;exitX=0.5;exitY=1;exitDx=0;exitDy=0;" parent="mvioNwK95yMqdUQ73LqQ-36" source="IdoxDIaUG4CfJ2-m0SA9-24" edge="1">
          <mxGeometry relative="1" as="geometry">
            <mxPoint x="290" y="285" as="targetPoint" />
            <mxPoint x="445" y="240" as="sourcePoint" />
            <Array as="points">
              <mxPoint x="435" y="285" />
            </Array>
          </mxGeometry>
        </mxCell>
        <mxCell id="IdoxDIaUG4CfJ2-m0SA9-24" value="ไปซื้อเซเว่น" style="rounded=0;whiteSpace=wrap;html=1;" parent="mvioNwK95yMqdUQ73LqQ-36" vertex="1">
          <mxGeometry x="400" y="195" width="70" height="30" as="geometry" />
        </mxCell>
        <mxCell id="IdoxDIaUG4CfJ2-m0SA9-34" value="ไม่พอ" style="edgeStyle=orthogonalEdgeStyle;rounded=0;orthogonalLoop=1;jettySize=auto;html=1;entryX=0;entryY=0.5;entryDx=0;entryDy=0;" parent="mvioNwK95yMqdUQ73LqQ-36" target="IdoxDIaUG4CfJ2-m0SA9-33" edge="1">
          <mxGeometry relative="1" as="geometry">
            <mxPoint x="319.98" y="370" as="sourcePoint" />
          </mxGeometry>
        </mxCell>
        <mxCell id="IdoxDIaUG4CfJ2-m0SA9-60" style="edgeStyle=orthogonalEdgeStyle;rounded=0;orthogonalLoop=1;jettySize=auto;html=1;entryX=0.5;entryY=0;entryDx=0;entryDy=0;" parent="mvioNwK95yMqdUQ73LqQ-36" target="IdoxDIaUG4CfJ2-m0SA9-58" edge="1">
          <mxGeometry relative="1" as="geometry">
            <mxPoint x="280.0244827586207" y="404.961077586207" as="sourcePoint" />
          </mxGeometry>
        </mxCell>
        <mxCell id="IdoxDIaUG4CfJ2-m0SA9-29" value="เงินพอหรือไม่" style="rhombus;whiteSpace=wrap;html=1;" parent="mvioNwK95yMqdUQ73LqQ-36" vertex="1">
          <mxGeometry x="239.98999999999998" y="335" width="80" height="70" as="geometry" />
        </mxCell>
        <mxCell id="IdoxDIaUG4CfJ2-m0SA9-36" style="edgeStyle=orthogonalEdgeStyle;rounded=0;orthogonalLoop=1;jettySize=auto;html=1;entryX=1;entryY=0.5;entryDx=0;entryDy=0;" parent="mvioNwK95yMqdUQ73LqQ-36" source="IdoxDIaUG4CfJ2-m0SA9-33" target="IdoxDIaUG4CfJ2-m0SA9-58" edge="1">
          <mxGeometry relative="1" as="geometry">
            <mxPoint x="320" y="445" as="targetPoint" />
            <Array as="points">
              <mxPoint x="430" y="435" />
            </Array>
          </mxGeometry>
        </mxCell>
        <mxCell id="IdoxDIaUG4CfJ2-m0SA9-33" value="กลับบ้านขอตังแม่" style="rounded=0;whiteSpace=wrap;html=1;" parent="mvioNwK95yMqdUQ73LqQ-36" vertex="1">
          <mxGeometry x="380" y="355" width="90" height="30" as="geometry" />
        </mxCell>
        <mxCell id="oZwS8hi09VmHAr_fTjPu-4" style="edgeStyle=orthogonalEdgeStyle;rounded=0;orthogonalLoop=1;jettySize=auto;html=1;entryX=0.5;entryY=0;entryDx=0;entryDy=0;" parent="mvioNwK95yMqdUQ73LqQ-36" source="IdoxDIaUG4CfJ2-m0SA9-58" target="IdoxDIaUG4CfJ2-m0SA9-17" edge="1">
          <mxGeometry relative="1" as="geometry" />
        </mxCell>
        <mxCell id="IdoxDIaUG4CfJ2-m0SA9-58" value="" style="ellipse;whiteSpace=wrap;html=1;aspect=fixed;" parent="mvioNwK95yMqdUQ73LqQ-36" vertex="1">
          <mxGeometry x="270" y="425" width="20" height="20" as="geometry" />
        </mxCell>
        <mxCell id="IdoxDIaUG4CfJ2-m0SA9-66" style="edgeStyle=orthogonalEdgeStyle;rounded=0;orthogonalLoop=1;jettySize=auto;html=1;entryX=0.5;entryY=0;entryDx=0;entryDy=0;" parent="mvioNwK95yMqdUQ73LqQ-36" source="IdoxDIaUG4CfJ2-m0SA9-63" edge="1">
          <mxGeometry relative="1" as="geometry">
            <mxPoint x="279.98" y="335" as="targetPoint" />
          </mxGeometry>
        </mxCell>
        <mxCell id="IdoxDIaUG4CfJ2-m0SA9-63" value="" style="ellipse;whiteSpace=wrap;html=1;aspect=fixed;" parent="mvioNwK95yMqdUQ73LqQ-36" vertex="1">
          <mxGeometry x="270" y="275" width="20" height="20" as="geometry" />
        </mxCell>
        <mxCell id="oZwS8hi09VmHAr_fTjPu-5" style="edgeStyle=orthogonalEdgeStyle;rounded=0;orthogonalLoop=1;jettySize=auto;html=1;entryX=0.5;entryY=0;entryDx=0;entryDy=0;" parent="mvioNwK95yMqdUQ73LqQ-36" source="IdoxDIaUG4CfJ2-m0SA9-17" target="IdoxDIaUG4CfJ2-m0SA9-27" edge="1">
          <mxGeometry relative="1" as="geometry" />
        </mxCell>
        <mxCell id="IdoxDIaUG4CfJ2-m0SA9-17" value="2.กลับบ้าน เตรียมหม้อต้ม" style="rounded=0;whiteSpace=wrap;html=1;" parent="mvioNwK95yMqdUQ73LqQ-36" vertex="1">
          <mxGeometry x="219.98999999999998" y="489" width="120" height="40" as="geometry" />
        </mxCell>
        <mxCell id="IdoxDIaUG4CfJ2-m0SA9-27" value="3.แกะซองบะหมี่กึ่งสำเร็จรูป" style="rounded=0;whiteSpace=wrap;html=1;" parent="mvioNwK95yMqdUQ73LqQ-36" vertex="1">
          <mxGeometry x="212.49" y="570" width="135" height="40" as="geometry" />
        </mxCell>
        <mxCell id="IdoxDIaUG4CfJ2-m0SA9-37" value="4.ใส่น้ำลงในหม้อต้ม 300ml&amp;nbsp;" style="rounded=0;whiteSpace=wrap;html=1;" parent="mvioNwK95yMqdUQ73LqQ-36" vertex="1">
          <mxGeometry x="212.49" y="650" width="135" height="40" as="geometry" />
        </mxCell>
        <mxCell id="IdoxDIaUG4CfJ2-m0SA9-38" style="edgeStyle=orthogonalEdgeStyle;rounded=0;orthogonalLoop=1;jettySize=auto;html=1;entryX=0.5;entryY=0;entryDx=0;entryDy=0;" parent="mvioNwK95yMqdUQ73LqQ-36" source="IdoxDIaUG4CfJ2-m0SA9-27" target="IdoxDIaUG4CfJ2-m0SA9-37" edge="1">
          <mxGeometry relative="1" as="geometry">
            <mxPoint x="285" y="730" as="targetPoint" />
          </mxGeometry>
        </mxCell>
        <mxCell id="IdoxDIaUG4CfJ2-m0SA9-39" value="5.เปิดแก็ส" style="rounded=0;whiteSpace=wrap;html=1;" parent="mvioNwK95yMqdUQ73LqQ-36" vertex="1">
          <mxGeometry x="249.39" y="730" width="62.5" height="30" as="geometry" />
        </mxCell>
        <mxCell id="IdoxDIaUG4CfJ2-m0SA9-41" value="6.นำน้ำไปต้มให้เดือด" style="rounded=0;whiteSpace=wrap;html=1;" parent="mvioNwK95yMqdUQ73LqQ-36" vertex="1">
          <mxGeometry x="237.51" y="790" width="86.25" height="40" as="geometry" />
        </mxCell>
        <mxCell id="IdoxDIaUG4CfJ2-m0SA9-40" style="edgeStyle=orthogonalEdgeStyle;rounded=0;orthogonalLoop=1;jettySize=auto;html=1;entryX=0.5;entryY=0;entryDx=0;entryDy=0;" parent="mvioNwK95yMqdUQ73LqQ-36" source="IdoxDIaUG4CfJ2-m0SA9-37" target="IdoxDIaUG4CfJ2-m0SA9-39" edge="1">
          <mxGeometry relative="1" as="geometry" />
        </mxCell>
        <mxCell id="IdoxDIaUG4CfJ2-m0SA9-42" style="edgeStyle=orthogonalEdgeStyle;rounded=0;orthogonalLoop=1;jettySize=auto;html=1;entryX=0.5;entryY=0;entryDx=0;entryDy=0;" parent="mvioNwK95yMqdUQ73LqQ-36" source="IdoxDIaUG4CfJ2-m0SA9-39" target="IdoxDIaUG4CfJ2-m0SA9-41" edge="1">
          <mxGeometry relative="1" as="geometry" />
        </mxCell>
        <mxCell id="IdoxDIaUG4CfJ2-m0SA9-12" value="&lt;font data-font-src=&quot;https://fonts.googleapis.com/css?family=Sarabun&quot; face=&quot;Sarabun&quot;&gt;เริ่มต้น&lt;/font&gt;" style="ellipse;whiteSpace=wrap;html=1;" parent="mvioNwK95yMqdUQ73LqQ-36" vertex="1">
          <mxGeometry x="214.99" y="40" width="130" height="30" as="geometry" />
        </mxCell>
        <mxCell id="IdoxDIaUG4CfJ2-m0SA9-45" value="ระหว่างต้มแก็ส&lt;div style=&quot;font-size: 10px;&quot;&gt;หมดหรือไม่&lt;/div&gt;" style="rhombus;whiteSpace=wrap;html=1;fontSize=10;" parent="mvioNwK95yMqdUQ73LqQ-36" vertex="1">
          <mxGeometry x="240.01" y="860" width="82.5" height="70" as="geometry" />
        </mxCell>
        <mxCell id="IdoxDIaUG4CfJ2-m0SA9-44" style="edgeStyle=orthogonalEdgeStyle;rounded=0;orthogonalLoop=1;jettySize=auto;html=1;entryX=0.5;entryY=0;entryDx=0;entryDy=0;" parent="mvioNwK95yMqdUQ73LqQ-36" source="IdoxDIaUG4CfJ2-m0SA9-41" target="IdoxDIaUG4CfJ2-m0SA9-45" edge="1">
          <mxGeometry relative="1" as="geometry">
            <mxPoint x="285.005" y="930" as="targetPoint" />
          </mxGeometry>
        </mxCell>
        <mxCell id="IdoxDIaUG4CfJ2-m0SA9-69" value="ไม่หมด" style="edgeStyle=orthogonalEdgeStyle;rounded=0;orthogonalLoop=1;jettySize=auto;html=1;entryX=0.5;entryY=0;entryDx=0;entryDy=0;fontSize=9;" parent="mvioNwK95yMqdUQ73LqQ-36" source="IdoxDIaUG4CfJ2-m0SA9-45" target="IdoxDIaUG4CfJ2-m0SA9-67" edge="1">
          <mxGeometry x="-0.3332" relative="1" as="geometry">
            <mxPoint y="3" as="offset" />
          </mxGeometry>
        </mxCell>
        <mxCell id="IdoxDIaUG4CfJ2-m0SA9-48" value="บอกพ่อหรือแม่ว่าแก็สหมดสั่งให้หน่อยจะต้มมาม่า" style="rounded=0;whiteSpace=wrap;html=1;fontSize=10;" parent="mvioNwK95yMqdUQ73LqQ-36" vertex="1">
          <mxGeometry x="370.63" y="876.25" width="140" height="37.5" as="geometry" />
        </mxCell>
        <mxCell id="IdoxDIaUG4CfJ2-m0SA9-49" style="edgeStyle=orthogonalEdgeStyle;rounded=0;orthogonalLoop=1;jettySize=auto;html=1;entryX=1;entryY=0.5;entryDx=0;entryDy=0;" parent="mvioNwK95yMqdUQ73LqQ-36" source="IdoxDIaUG4CfJ2-m0SA9-48" target="IdoxDIaUG4CfJ2-m0SA9-67" edge="1">
          <mxGeometry relative="1" as="geometry">
            <mxPoint x="280" y="1020" as="targetPoint" />
            <Array as="points">
              <mxPoint x="441" y="990" />
            </Array>
          </mxGeometry>
        </mxCell>
        <mxCell id="IdoxDIaUG4CfJ2-m0SA9-47" value="หมด" style="edgeStyle=orthogonalEdgeStyle;rounded=0;orthogonalLoop=1;jettySize=auto;html=1;" parent="mvioNwK95yMqdUQ73LqQ-36" source="IdoxDIaUG4CfJ2-m0SA9-45" target="IdoxDIaUG4CfJ2-m0SA9-48" edge="1">
          <mxGeometry x="-0.2297" relative="1" as="geometry">
            <mxPoint x="400.63" y="925" as="targetPoint" />
            <mxPoint as="offset" />
          </mxGeometry>
        </mxCell>
        <mxCell id="IdoxDIaUG4CfJ2-m0SA9-14" value="1.เตรียมของ ไปซื้อของที่ตลาด" style="rounded=0;whiteSpace=wrap;html=1;" parent="mvioNwK95yMqdUQ73LqQ-36" vertex="1">
          <mxGeometry x="219.99" y="120" width="120" height="40" as="geometry" />
        </mxCell>
        <mxCell id="IdoxDIaUG4CfJ2-m0SA9-11" style="edgeStyle=orthogonalEdgeStyle;rounded=0;orthogonalLoop=1;jettySize=auto;html=1;exitX=0.5;exitY=1;exitDx=0;exitDy=0;entryX=0.5;entryY=0;entryDx=0;entryDy=0;" parent="mvioNwK95yMqdUQ73LqQ-36" source="IdoxDIaUG4CfJ2-m0SA9-12" target="IdoxDIaUG4CfJ2-m0SA9-14" edge="1">
          <mxGeometry relative="1" as="geometry" />
        </mxCell>
        <mxCell id="oZwS8hi09VmHAr_fTjPu-2" style="edgeStyle=orthogonalEdgeStyle;rounded=0;orthogonalLoop=1;jettySize=auto;html=1;entryX=0.5;entryY=0;entryDx=0;entryDy=0;" parent="mvioNwK95yMqdUQ73LqQ-36" source="IdoxDIaUG4CfJ2-m0SA9-14" target="IdoxDIaUG4CfJ2-m0SA9-20" edge="1">
          <mxGeometry relative="1" as="geometry" />
        </mxCell>
        <mxCell id="IdoxDIaUG4CfJ2-m0SA9-55" value="ไม่เดือด" style="edgeStyle=orthogonalEdgeStyle;rounded=0;orthogonalLoop=1;jettySize=auto;html=1;fontSize=10;entryX=1;entryY=0.5;entryDx=0;entryDy=0;" parent="mvioNwK95yMqdUQ73LqQ-36" target="IdoxDIaUG4CfJ2-m0SA9-51" edge="1">
          <mxGeometry relative="1" as="geometry">
            <mxPoint x="332.38" y="1040" as="targetPoint" />
            <Array as="points">
              <mxPoint x="321" y="1114" />
              <mxPoint x="372" y="1114" />
              <mxPoint x="372" y="1040" />
            </Array>
            <mxPoint as="offset" />
            <mxPoint x="321" y="1114" as="sourcePoint" />
          </mxGeometry>
        </mxCell>
        <mxCell id="mvioNwK95yMqdUQ73LqQ-70" value="&lt;font data-font-src=&quot;https://fonts.googleapis.com/css?family=Sarabun&quot; face=&quot;Sarabun&quot;&gt;โจทย์ปัญหา&lt;/font&gt;" style="swimlane;whiteSpace=wrap;html=1;movable=0;resizable=0;rotatable=0;deletable=0;editable=0;locked=1;connectable=0;" parent="WIyWlLk6GJQsqaUBKTNV-1" vertex="1">
          <mxGeometry x="-732.5" y="320" width="665" height="310" as="geometry" />
        </mxCell>
        <mxCell id="mvioNwK95yMqdUQ73LqQ-71" value="&lt;p style=&quot;line-height: 120%;&quot;&gt;&lt;font data-font-src=&quot;https://fonts.googleapis.com/css?family=Sarabun&quot; face=&quot;Sarabun&quot; style=&quot;font-size: 14px;&quot;&gt;&lt;b&gt;&lt;u&gt;โจทย์&lt;/u&gt;&lt;/b&gt; จงเขียน Flowchart เพื่อแสดงขั้นตอนการต้มบะหมี่กึ่งสำเร็จรูป (โดยผู้อ่าน Flowchart คือน้องของคุณ&lt;br&gt;&amp;nbsp; &amp;nbsp; &amp;nbsp; &amp;nbsp; &amp;nbsp; ที่มีอายุ 5 ขวบและกำลังหยิบ Flowchart มาต้มมาม่าให้คุณรับประทาน โดยคุณจะไม่พูดอะไรกับน้องเลย)&lt;br&gt;&lt;/font&gt;&lt;br&gt;&lt;/p&gt;&lt;p style=&quot;line-height: 120%;&quot;&gt;&lt;font face=&quot;Sarabun&quot;&gt;&lt;b&gt;&lt;u&gt;หมายเหตุ&lt;/u&gt;&lt;/b&gt; ทุกขั้นตอนควรมีการอธิบายอย่างละเอียด และเตรียมแก้ไขสำหรับเหตุการณ์ที่อาจผิดพลาดในทุกขั้นตอน&lt;br&gt;&amp;nbsp; &amp;nbsp; &amp;nbsp; &amp;nbsp; &amp;nbsp; เช่น&lt;br&gt;&amp;nbsp; &amp;nbsp; &amp;nbsp; &amp;nbsp; &amp;nbsp; - กรณีให้น้องไปซื้อของที่ตลาด แต่ของหมด ควรดำเนินการอย่างไร?&lt;br&gt;&amp;nbsp; &amp;nbsp; &amp;nbsp; &amp;nbsp; &amp;nbsp; - กรณีให้น้องต้มน้ำ แต่น้ำยังไม่เดือด ควรใส่บะหมี่สำเร็จรูปลงไปเลยไหม&lt;br&gt;&amp;nbsp; &amp;nbsp; &amp;nbsp; &amp;nbsp; &amp;nbsp; - กรณีระหว่างทำกับข้าวแล้วแก้สหมด ควรดำเนินการอย่างไร?&lt;br&gt;&amp;nbsp; &amp;nbsp; &amp;nbsp; &amp;nbsp; &amp;nbsp; - กรณีน้องไปซื้อของ แต่จำนวนเงินไม่พอ ควรทำอย่างไร?&lt;br&gt;&amp;nbsp; &amp;nbsp; &amp;nbsp; &amp;nbsp; &amp;nbsp; - กรณีน้องต้มบะหมี่เสร็จ แต่พึ่งมาทราบภายหลังว่าในซองบะหมี่ไม่มีเครื่องปรุงมาด้วย ต้องทำอย่างไร?&lt;/font&gt;&lt;/p&gt;" style="text;html=1;align=left;verticalAlign=top;resizable=0;points=[];autosize=1;strokeColor=none;fillColor=none;fontSize=14;" parent="mvioNwK95yMqdUQ73LqQ-70" vertex="1">
          <mxGeometry x="15" y="20" width="650" height="240" as="geometry" />
        </mxCell>
      </root>
    </mxGraphModel>
  </diagram>
</mxfile>
